# xmcd
#
# Track frame offsets:
#	150
#	16102
#	32187
#	49955
#	64630
#	89773
#	104686
#	124124
#	143551
#	159628
#	178882
#	196882
#	223132
#	239262
#	250662
#	267995
#	286330
#
# Disc length: 4082 seconds
#
# Revision: 0
# Processed by: cddbd v1.4PL0 Copyright (c) Steve Scherf et al.
# Submitted via: dBpowerAMP V4.0
#
DISCID=fe0ff011
DTITLE=Julio IglesiasMe xe, Me va - My Life - the Greatest hits
DYEAR=1900
DGENRE=
TTITLE0=To all the Girls I loved before
TTITLE1=Moralito
TTITLE2=All of you 
TTITLE3=Crazy
TTITLE4=my love
TTITLE5=Can't help falling in love
TTITLE6=Vincent
TTITLE7=When I need you 
TTITLE8=Crazy in love
TTITLE9=Fragile
TTITLE10=When you tell me that you love me 
TTITLE11=Caruso
TTITLE12=Smoke gets in your eyes
TTITLE13=Summer wind
TTITLE14=Por El amor de una mujer
TTITLE15=Moonlight lady
TTITLE16=My way
EXTD=
EXTT0=
EXTT1=
EXTT2=
EXTT3=
EXTT4=
EXTT5=
EXTT6=
EXTT7=
EXTT8=
EXTT9=
EXTT10=
EXTT11=
EXTT12=
EXTT13=
EXTT14=
EXTT15=
EXTT16=
PLAYORDER=
